<svg width="48" height="48" viewBox="0 0 48 48" fill="none" xmlns="http://www.w3.org/2000/svg">
<path d="M16.8084 14.7772H21.4908V33.5069H16.8084V14.7772ZM23.832 47.5542C10.9554 47.5542 0.419922 37.0187 0.419922 24.1421C0.419922 11.2654 10.9554 0.729977 23.832 0.729977C36.7087 0.729977 47.2441 11.2654 47.2441 24.1421C47.2441 37.0187 36.7087 47.5542 23.832 47.5542ZM23.832 5.4124C13.5307 5.4124 5.10234 13.8408 5.10234 24.1421C5.10234 34.4434 13.5307 42.8718 23.832 42.8718C34.1334 42.8718 42.5617 34.4434 42.5617 24.1421C42.5617 13.8408 34.1334 5.4124 23.832 5.4124ZM26.1732 14.7772H30.8557V33.5069H26.1732V14.7772Z" fill="black"/>
</svg>
