<svg width="23" height="23" viewBox="0 0 23 23" fill="none" xmlns="http://www.w3.org/2000/svg">
<path d="M4.6 9.96667C6.38889 13.5444 9.45556 16.4833 13.0333 18.4L15.8444 15.5889C16.2277 15.2056 16.7389 15.0778 17.1222 15.3333C18.5278 15.8444 20.0611 16.1 21.7222 16.1C22.4889 16.1 23 16.6111 23 17.3778V21.7222C23 22.4889 22.4889 23 21.7222 23C9.71111 23 0 13.2889 0 1.27778C0 0.511111 0.511111 0 1.27778 0H5.75C6.51667 0 7.02778 0.511111 7.02778 1.27778C7.02778 2.81111 7.28333 4.34444 7.79444 5.87778C7.92222 6.26111 7.79444 6.77222 7.53889 7.15556L4.6 9.96667Z" fill="#8E8E8E"/>
</svg>
